# xmcd CD database file
#
# Track frame offsets:
#	150
#	12898
#	24755
#	36945
#	49010
#	60708
#	74430
#	86653
#	98523
#	109215
#	119660
#	132190
#
# Disc length: 1908 seconds
#
# Revision: 0
# Processed by: cddbd v1.4PL0 Copyright (c) Steve Scherf et al.
# Submitted via: CDex 1.50beta10
#
DISCID=9b07720c
DTITLE=Bob Wills and Friends Vol. 3 - Ray Price and His Cherokee Cowboys
DYEAR=1900
DGENRE=Country
TTITLE0=Faded Love
TTITLE1=Deep Water
TTITLE2=Twinkle Twinkle Little Star 
TTITLE3=My Confession 
TTITLE4=Bubbles In My Beer
TTITLE5=Rubber Dolly 
TTITLE6=Home In San Antone
TTITLE7=Hang Your Head In Shame
TTITLE8=Liberty Bell 
TTITLE9=The Kind Of Love I Can't Forget
TTITLE10=Your Old Love Letters 
TTITLE11=Lil' Liza Jane 
EXTD=
EXTT0=
EXTT1=
EXTT2=
EXTT3=
EXTT4=
EXTT5=
EXTT6=
EXTT7=
EXTT8=
EXTT9=
EXTT10=
EXTT11=
PLAYORDER=
